<svg preserveAspectRatio="none" width="100%" height="100%" overflow="visible" style="display: block;" viewBox="0 0 20 19" fill="none" xmlns="http://www.w3.org/2000/svg">
<path id="Vector" d="M6.25 3.775V1.5C6.25 1.11667 6.4 0.770833 6.7 0.4625C7 0.154167 7.35 0 7.75 0H12.25C12.6333 0 12.9792 0.154167 13.2875 0.4625C13.5958 0.770833 13.75 1.11667 13.75 1.5V3.775H18.5C18.9 3.775 19.25 3.92917 19.55 4.2375C19.85 4.54583 20 4.89167 20 5.275V17.5C20 17.8833 19.85 18.2292 19.55 18.5375C19.25 18.8458 18.9 19 18.5 19H1.5C1.11667 19 0.770833 18.8458 0.4625 18.5375C0.154167 18.2292 0 17.8833 0 17.5V5.275C0 4.89167 0.154167 4.54583 0.4625 4.2375C0.770833 3.92917 1.11667 3.775 1.5 3.775H6.25ZM7.75 3.775H12.25V1.5H7.75V3.775ZM18.5 12.725H12.275V13.4794C12.275 13.6931 12.203 13.8708 12.0591 14.0125C11.9151 14.1542 11.7367 14.225 11.5238 14.225H8.51925C8.30642 14.225 8.12917 14.1531 7.9875 14.0094C7.84583 13.8656 7.775 13.6875 7.775 13.475V12.725H1.5V17.5H18.5V12.725ZM9.275 12.725H10.775V11.225H9.275V12.725ZM1.5 11.225H7.775V10.4706C7.775 10.2569 7.84698 10.0792 7.99095 9.9375C8.13492 9.79583 8.31332 9.725 8.52615 9.725H11.5307C11.7436 9.725 11.9208 9.79688 12.0625 9.94063C12.2042 10.0844 12.275 10.2625 12.275 10.475V11.225H18.5V5.275H1.5V11.225Z" fill="var(--fill-0, #B8BEC6)"/>
</svg>
