<svg preserveAspectRatio="none" width="100%" height="100%" overflow="visible" style="display: block;" viewBox="0 0 2.4 16" fill="none" xmlns="http://www.w3.org/2000/svg">
<path id="Vector" d="M1.2 16C0.866666 16 0.583333 15.8833 0.349999 15.65C0.116666 15.4167 0 15.1333 0 14.8C0 14.4667 0.116666 14.1833 0.349999 13.95C0.583333 13.7167 0.866666 13.6 1.2 13.6C1.53333 13.6 1.81667 13.7167 2.05 13.95C2.28333 14.1833 2.4 14.4667 2.4 14.8C2.4 15.1333 2.28333 15.4167 2.05 15.65C1.81667 15.8833 1.53333 16 1.2 16ZM1.2 9.2C0.866666 9.2 0.583333 9.08333 0.349999 8.85C0.116666 8.61667 0 8.33333 0 8C0 7.66667 0.116666 7.38333 0.349999 7.15C0.583333 6.91667 0.866666 6.8 1.2 6.8C1.53333 6.8 1.81667 6.91667 2.05 7.15C2.28333 7.38333 2.4 7.66667 2.4 8C2.4 8.33333 2.28333 8.61667 2.05 8.85C1.81667 9.08333 1.53333 9.2 1.2 9.2ZM1.2 2.4C0.866666 2.4 0.583333 2.28333 0.349999 2.05C0.116666 1.81667 0 1.53333 0 1.2C0 0.866666 0.116666 0.583333 0.349999 0.35C0.583333 0.116667 0.866666 0 1.2 0C1.53333 0 1.81667 0.116667 2.05 0.35C2.28333 0.583333 2.4 0.866666 2.4 1.2C2.4 1.53333 2.28333 1.81667 2.05 2.05C1.81667 2.28333 1.53333 2.4 1.2 2.4Z" fill="var(--fill-0, #B8BEC6)"/>
</svg>
