<svg preserveAspectRatio="none" width="100%" height="100%" overflow="visible" style="display: block;" viewBox="0 0 16 20" fill="none" xmlns="http://www.w3.org/2000/svg">
<path id="Vector" d="M7.25 12.925V15.4C7.25 15.6125 7.32229 15.7906 7.46687 15.9344C7.61147 16.0781 7.79064 16.15 8.00437 16.15C8.21812 16.15 8.39583 16.0781 8.5375 15.9344C8.67917 15.7906 8.75 15.6125 8.75 15.4V12.925H11.25C11.4625 12.925 11.6406 12.8527 11.7844 12.7081C11.9281 12.5635 12 12.3844 12 12.1706C12 11.9569 11.9281 11.7792 11.7844 11.6375C11.6406 11.4958 11.4625 11.425 11.25 11.425H8.75V8.925C8.75 8.7125 8.67771 8.53438 8.53313 8.39063C8.38853 8.24688 8.20936 8.175 7.99563 8.175C7.78188 8.175 7.60417 8.24688 7.4625 8.39063C7.32083 8.53438 7.25 8.7125 7.25 8.925V11.425H4.75C4.5375 11.425 4.35938 11.4973 4.21563 11.6419C4.07188 11.7865 4 11.9656 4 12.1794C4 12.3931 4.07188 12.5708 4.21563 12.7125C4.35938 12.8542 4.5375 12.925 4.75 12.925H7.25ZM1.5 20C1.1 20 0.75 19.85 0.45 19.55C0.15 19.25 0 18.9 0 18.5V1.5C0 1.1 0.15 0.75 0.45 0.45C0.75 0.15 1.1 0 1.5 0H9.9C10.1074 0 10.3051 0.0416667 10.493 0.125C10.681 0.208333 10.8417 0.316667 10.975 0.45L15.55 5.025C15.6833 5.15833 15.7917 5.31898 15.875 5.50695C15.9583 5.69492 16 5.8926 16 6.1V18.5C16 18.9 15.85 19.25 15.55 19.55C15.25 19.85 14.9 20 14.5 20H1.5ZM9.775 5.4V1.5H1.5V18.5H14.5V6.15H10.525C10.3125 6.15 10.1344 6.07813 9.99063 5.93438C9.84688 5.79063 9.775 5.6125 9.775 5.4Z" fill="var(--fill-0, #B8BEC6)"/>
</svg>
