<svg preserveAspectRatio="none" width="100%" height="100%" overflow="visible" style="display: block;" viewBox="0 0 20 20" fill="none" xmlns="http://www.w3.org/2000/svg">
<g id="Info">
<path d="M10.9598 12.9884H9.04367V12.0306C9.04793 11.5614 9.15475 11.0988 9.35666 10.6752C9.55856 10.2516 9.85066 9.8773 10.2125 9.57847L11.4771 8.60146C11.5831 8.5116 11.6686 8.40019 11.7281 8.27466C11.7876 8.14913 11.8196 8.01237 11.822 7.87349C11.822 7.41622 11.6403 6.97768 11.3169 6.65434C10.9935 6.331 10.5549 6.14935 10.0975 6.14935C9.64017 6.14935 9.20153 6.331 8.87813 6.65434C8.55472 6.97768 8.37303 7.41622 8.37303 7.87349V8.83134L6.45693 8.94628V7.87349C6.45693 6.90814 6.84049 5.98233 7.52323 5.29973C8.20598 4.61712 9.13198 4.23364 10.0975 4.23364C11.0631 4.23364 11.9891 4.61712 12.6718 5.29973C13.3546 5.98233 13.7381 6.90814 13.7381 7.87349C13.7391 8.29624 13.6449 8.71379 13.4625 9.09517C13.2801 9.47655 13.0141 9.81197 12.6843 10.0766L11.5346 11.0344C11.3856 11.1543 11.2652 11.3059 11.1824 11.4783C11.0995 11.6506 11.0562 11.8393 11.0556 12.0306L10.9598 12.9884Z" fill="var(--fill-0, #B8BEC6)"/>
<path d="M10.0017 15.6129C10.5732 15.6129 11.0364 15.1498 11.0364 14.5784C11.0364 14.0071 10.5732 13.544 10.0017 13.544C9.43027 13.544 8.96702 14.0071 8.96702 14.5784C8.96702 15.1498 9.43027 15.6129 10.0017 15.6129Z" fill="var(--fill-0, #B8BEC6)"/>
<path fill-rule="evenodd" clip-rule="evenodd" d="M5.62225 1.00972C6.98656 0.345345 8.48419 5.38289e-05 10.0017 0C11.6991 0.00389146 13.3677 0.438773 14.851 1.26385C16.3342 2.08894 17.5836 3.27718 18.4818 4.71712C19.3801 6.15706 19.8978 7.80152 19.9863 9.49625C20.0749 11.191 19.7315 12.8804 18.9883 14.4061C18.8159 14.7218 18.7615 15.0885 18.835 15.4406L19.6398 19.6552L15.8075 18.659C15.6869 18.6403 15.5641 18.6403 15.4435 18.659C15.1698 18.6566 14.8998 18.7225 14.6579 18.8506C13.3148 19.5568 11.8285 19.9482 10.3117 19.9952C8.79491 20.0422 7.28729 19.7435 5.90305 19.1217C4.5188 18.4999 3.29421 17.5713 2.32202 16.4063C1.34984 15.2414 0.65554 13.8705 0.291712 12.3975C-0.0721165 10.9245 -0.095936 9.38808 0.222057 7.90455C0.54005 6.42101 1.19152 5.02926 2.12712 3.83471C3.06273 2.64015 4.25794 1.6741 5.62225 1.00972ZM13.9147 2.94442C12.7187 2.27553 11.3722 1.92154 10.0017 1.91571C7.84703 1.90555 5.77655 2.75157 4.24576 4.26767C2.71497 5.78377 1.84927 7.84575 1.83911 10C1.82895 12.1542 2.67515 14.2243 4.19156 15.7548C5.70798 17.2852 7.77039 18.1508 9.92509 18.1609C11.258 18.1681 12.5728 17.8526 13.7573 17.2414C14.2831 16.9667 14.8695 16.8284 15.4626 16.8391C15.7423 16.8005 16.026 16.8005 16.3057 16.8391L17.2255 17.0881L16.9189 15.8238C16.7616 15.0573 16.8697 14.2601 17.2255 13.5632C17.8295 12.3333 18.111 10.9701 18.0435 9.60157C17.9759 8.23306 17.5616 6.90415 16.8394 5.73967C16.1172 4.57518 15.1108 3.61332 13.9147 2.94442Z" fill="var(--fill-0, #B8BEC6)"/>
</g>
</svg>
